<mxfile host="Electron" agent="Mozilla/5.0 (Windows NT 10.0; Win64; x64) AppleWebKit/537.36 (KHTML, like Gecko) draw.io/24.7.17 Chrome/128.0.6613.36 Electron/32.0.1 Safari/537.36" version="24.7.17">
  <diagram name="Page-1" id="DLtDsJo7M3jTJjBeh3xj">
    <mxGraphModel dx="1050" dy="629" grid="1" gridSize="10" guides="1" tooltips="1" connect="1" arrows="1" fold="1" page="1" pageScale="1" pageWidth="827" pageHeight="1169" math="0" shadow="0">
      <root>
        <mxCell id="0" />
        <mxCell id="1" parent="0" />
        <mxCell id="91zzfUGmN8HP8q-OuxOU-1" value="COCHE" style="whiteSpace=wrap;html=1;align=center;" vertex="1" parent="1">
          <mxGeometry x="510" y="360" width="80" height="40" as="geometry" />
        </mxCell>
        <mxCell id="91zzfUGmN8HP8q-OuxOU-2" value="CLIENTE" style="whiteSpace=wrap;html=1;align=center;" vertex="1" parent="1">
          <mxGeometry x="510" y="120" width="80" height="40" as="geometry" />
        </mxCell>
        <mxCell id="91zzfUGmN8HP8q-OuxOU-3" value="NIF" style="ellipse;whiteSpace=wrap;html=1;align=center;" vertex="1" parent="1">
          <mxGeometry x="334" y="40" width="100" height="40" as="geometry" />
        </mxCell>
        <mxCell id="91zzfUGmN8HP8q-OuxOU-4" value="direccion" style="ellipse;whiteSpace=wrap;html=1;align=center;" vertex="1" parent="1">
          <mxGeometry x="554" y="40" width="100" height="40" as="geometry" />
        </mxCell>
        <mxCell id="91zzfUGmN8HP8q-OuxOU-5" value="nombre" style="ellipse;whiteSpace=wrap;html=1;align=center;" vertex="1" parent="1">
          <mxGeometry x="444" y="40" width="100" height="40" as="geometry" />
        </mxCell>
        <mxCell id="91zzfUGmN8HP8q-OuxOU-6" value="ciudad" style="ellipse;whiteSpace=wrap;html=1;align=center;" vertex="1" parent="1">
          <mxGeometry x="664" y="40" width="100" height="40" as="geometry" />
        </mxCell>
        <mxCell id="91zzfUGmN8HP8q-OuxOU-8" value="" style="endArrow=none;html=1;rounded=0;entryX=0.5;entryY=0;entryDx=0;entryDy=0;exitX=1;exitY=1;exitDx=0;exitDy=0;" edge="1" parent="1" source="91zzfUGmN8HP8q-OuxOU-5" target="91zzfUGmN8HP8q-OuxOU-2">
          <mxGeometry width="50" height="50" relative="1" as="geometry">
            <mxPoint x="370" y="280" as="sourcePoint" />
            <mxPoint x="420" y="230" as="targetPoint" />
          </mxGeometry>
        </mxCell>
        <mxCell id="91zzfUGmN8HP8q-OuxOU-9" value="" style="endArrow=none;html=1;rounded=0;exitX=1;exitY=1;exitDx=0;exitDy=0;entryX=0.5;entryY=0;entryDx=0;entryDy=0;" edge="1" parent="1" source="91zzfUGmN8HP8q-OuxOU-3" target="91zzfUGmN8HP8q-OuxOU-2">
          <mxGeometry width="50" height="50" relative="1" as="geometry">
            <mxPoint x="560" y="90" as="sourcePoint" />
            <mxPoint x="580" y="100" as="targetPoint" />
          </mxGeometry>
        </mxCell>
        <mxCell id="91zzfUGmN8HP8q-OuxOU-11" value="" style="endArrow=none;html=1;rounded=0;exitX=0;exitY=1;exitDx=0;exitDy=0;entryX=0.5;entryY=0;entryDx=0;entryDy=0;" edge="1" parent="1" source="91zzfUGmN8HP8q-OuxOU-6" target="91zzfUGmN8HP8q-OuxOU-2">
          <mxGeometry width="50" height="50" relative="1" as="geometry">
            <mxPoint x="375" y="84" as="sourcePoint" />
            <mxPoint x="560" y="130" as="targetPoint" />
          </mxGeometry>
        </mxCell>
        <mxCell id="91zzfUGmN8HP8q-OuxOU-12" value="" style="endArrow=none;html=1;rounded=0;exitX=0;exitY=1;exitDx=0;exitDy=0;entryX=0.5;entryY=0;entryDx=0;entryDy=0;" edge="1" parent="1" source="91zzfUGmN8HP8q-OuxOU-4" target="91zzfUGmN8HP8q-OuxOU-2">
          <mxGeometry width="50" height="50" relative="1" as="geometry">
            <mxPoint x="745" y="84" as="sourcePoint" />
            <mxPoint x="560" y="130" as="targetPoint" />
          </mxGeometry>
        </mxCell>
        <mxCell id="91zzfUGmN8HP8q-OuxOU-13" value="telf" style="ellipse;whiteSpace=wrap;html=1;align=center;" vertex="1" parent="1">
          <mxGeometry x="774" y="40" width="100" height="40" as="geometry" />
        </mxCell>
        <mxCell id="91zzfUGmN8HP8q-OuxOU-14" value="" style="endArrow=none;html=1;rounded=0;entryX=0.5;entryY=0;entryDx=0;entryDy=0;exitX=0;exitY=1;exitDx=0;exitDy=0;" edge="1" parent="1" source="91zzfUGmN8HP8q-OuxOU-13" target="91zzfUGmN8HP8q-OuxOU-2">
          <mxGeometry width="50" height="50" relative="1" as="geometry">
            <mxPoint x="580" y="280" as="sourcePoint" />
            <mxPoint x="630" y="230" as="targetPoint" />
          </mxGeometry>
        </mxCell>
        <mxCell id="91zzfUGmN8HP8q-OuxOU-15" value="&lt;u&gt;codCliente&lt;/u&gt;" style="ellipse;whiteSpace=wrap;html=1;align=center;" vertex="1" parent="1">
          <mxGeometry x="220" y="40" width="100" height="40" as="geometry" />
        </mxCell>
        <mxCell id="91zzfUGmN8HP8q-OuxOU-16" value="" style="endArrow=none;html=1;rounded=0;entryX=0.5;entryY=0;entryDx=0;entryDy=0;exitX=1;exitY=1;exitDx=0;exitDy=0;" edge="1" parent="1" source="91zzfUGmN8HP8q-OuxOU-15" target="91zzfUGmN8HP8q-OuxOU-2">
          <mxGeometry width="50" height="50" relative="1" as="geometry">
            <mxPoint x="580" y="280" as="sourcePoint" />
            <mxPoint x="630" y="230" as="targetPoint" />
          </mxGeometry>
        </mxCell>
        <mxCell id="91zzfUGmN8HP8q-OuxOU-17" value="Comprar" style="shape=rhombus;perimeter=rhombusPerimeter;whiteSpace=wrap;html=1;align=center;" vertex="1" parent="1">
          <mxGeometry x="490" y="230" width="120" height="60" as="geometry" />
        </mxCell>
        <mxCell id="91zzfUGmN8HP8q-OuxOU-18" value="" style="endArrow=none;html=1;rounded=0;exitX=0.5;exitY=0;exitDx=0;exitDy=0;entryX=0.5;entryY=1;entryDx=0;entryDy=0;edgeStyle=orthogonalEdgeStyle;verticalAlign=bottom;" edge="1" parent="1" source="91zzfUGmN8HP8q-OuxOU-17" target="91zzfUGmN8HP8q-OuxOU-2">
          <mxGeometry relative="1" as="geometry">
            <mxPoint x="490" y="180" as="sourcePoint" />
            <mxPoint x="744" y="430" as="targetPoint" />
          </mxGeometry>
        </mxCell>
        <mxCell id="91zzfUGmN8HP8q-OuxOU-31" value="0, M" style="edgeLabel;html=1;align=center;verticalAlign=middle;resizable=0;points=[];" vertex="1" connectable="0" parent="91zzfUGmN8HP8q-OuxOU-18">
          <mxGeometry x="-0.0689" y="-2" relative="1" as="geometry">
            <mxPoint x="-2" y="3" as="offset" />
          </mxGeometry>
        </mxCell>
        <mxCell id="91zzfUGmN8HP8q-OuxOU-19" value="" style="endArrow=none;html=1;rounded=0;exitX=0.5;exitY=1;exitDx=0;exitDy=0;entryX=0.5;entryY=0;entryDx=0;entryDy=0;edgeStyle=orthogonalEdgeStyle;verticalAlign=bottom;" edge="1" parent="1" source="91zzfUGmN8HP8q-OuxOU-17" target="91zzfUGmN8HP8q-OuxOU-1">
          <mxGeometry relative="1" as="geometry">
            <mxPoint x="490" y="180" as="sourcePoint" />
            <mxPoint x="744" y="430" as="targetPoint" />
          </mxGeometry>
        </mxCell>
        <mxCell id="91zzfUGmN8HP8q-OuxOU-29" value="0, 1" style="edgeLabel;html=1;align=center;verticalAlign=middle;resizable=0;points=[];" vertex="1" connectable="0" parent="91zzfUGmN8HP8q-OuxOU-19">
          <mxGeometry x="0.0185" y="2" relative="1" as="geometry">
            <mxPoint x="-2" as="offset" />
          </mxGeometry>
        </mxCell>
        <mxCell id="91zzfUGmN8HP8q-OuxOU-20" value="REVISION" style="whiteSpace=wrap;html=1;align=center;" vertex="1" parent="1">
          <mxGeometry x="180" y="360" width="90" height="40" as="geometry" />
        </mxCell>
        <mxCell id="91zzfUGmN8HP8q-OuxOU-21" value="&lt;u&gt;codRevision&lt;/u&gt;" style="ellipse;whiteSpace=wrap;html=1;align=center;" vertex="1" parent="1">
          <mxGeometry x="40" y="260" width="100" height="40" as="geometry" />
        </mxCell>
        <mxCell id="91zzfUGmN8HP8q-OuxOU-22" value="Pasar" style="shape=rhombus;perimeter=rhombusPerimeter;whiteSpace=wrap;html=1;align=center;" vertex="1" parent="1">
          <mxGeometry x="329" y="350" width="120" height="60" as="geometry" />
        </mxCell>
        <mxCell id="91zzfUGmN8HP8q-OuxOU-23" value="cambioFiltro" style="ellipse;whiteSpace=wrap;html=1;align=center;" vertex="1" parent="1">
          <mxGeometry x="40" y="310" width="100" height="40" as="geometry" />
        </mxCell>
        <mxCell id="91zzfUGmN8HP8q-OuxOU-24" value="cambioAceite" style="ellipse;whiteSpace=wrap;html=1;align=center;" vertex="1" parent="1">
          <mxGeometry x="40" y="360" width="100" height="40" as="geometry" />
        </mxCell>
        <mxCell id="91zzfUGmN8HP8q-OuxOU-25" value="cambioFrenos" style="ellipse;whiteSpace=wrap;html=1;align=center;" vertex="1" parent="1">
          <mxGeometry x="40" y="410" width="100" height="40" as="geometry" />
        </mxCell>
        <mxCell id="91zzfUGmN8HP8q-OuxOU-26" value="cambioOtros" style="ellipse;whiteSpace=wrap;html=1;align=center;" vertex="1" parent="1">
          <mxGeometry x="40" y="460" width="100" height="40" as="geometry" />
        </mxCell>
        <mxCell id="91zzfUGmN8HP8q-OuxOU-27" value="" style="endArrow=none;html=1;rounded=0;exitX=1;exitY=0.5;exitDx=0;exitDy=0;entryX=0;entryY=0.5;entryDx=0;entryDy=0;edgeStyle=orthogonalEdgeStyle;verticalAlign=bottom;" edge="1" parent="1" source="91zzfUGmN8HP8q-OuxOU-20" target="91zzfUGmN8HP8q-OuxOU-22">
          <mxGeometry relative="1" as="geometry">
            <mxPoint x="370" y="310" as="sourcePoint" />
            <mxPoint x="624" y="560" as="targetPoint" />
          </mxGeometry>
        </mxCell>
        <mxCell id="91zzfUGmN8HP8q-OuxOU-33" value="0, M" style="edgeLabel;html=1;align=center;verticalAlign=middle;resizable=0;points=[];" vertex="1" connectable="0" parent="91zzfUGmN8HP8q-OuxOU-27">
          <mxGeometry x="-0.2068" y="4" relative="1" as="geometry">
            <mxPoint x="7" y="4" as="offset" />
          </mxGeometry>
        </mxCell>
        <mxCell id="91zzfUGmN8HP8q-OuxOU-28" value="" style="endArrow=none;html=1;rounded=0;exitX=1;exitY=0.5;exitDx=0;exitDy=0;entryX=0;entryY=0.5;entryDx=0;entryDy=0;edgeStyle=orthogonalEdgeStyle;verticalAlign=bottom;" edge="1" parent="1" source="91zzfUGmN8HP8q-OuxOU-22" target="91zzfUGmN8HP8q-OuxOU-1">
          <mxGeometry relative="1" as="geometry">
            <mxPoint x="370" y="310" as="sourcePoint" />
            <mxPoint x="624" y="560" as="targetPoint" />
          </mxGeometry>
        </mxCell>
        <mxCell id="91zzfUGmN8HP8q-OuxOU-32" value="1, 1" style="edgeLabel;html=1;align=center;verticalAlign=middle;resizable=0;points=[];" vertex="1" connectable="0" parent="91zzfUGmN8HP8q-OuxOU-28">
          <mxGeometry x="-0.0361" y="-1" relative="1" as="geometry">
            <mxPoint y="-1" as="offset" />
          </mxGeometry>
        </mxCell>
      </root>
    </mxGraphModel>
  </diagram>
</mxfile>
